<svg xmlns="http://www.w3.org/2000/svg" width="1027.496" height="696.119" viewBox="0 0 1027.496 696.119">
  <g id="グループ_954" data-name="グループ 954" transform="translate(-12084 -6446)">
    <circle id="楕円形_109" data-name="楕円形 109" cx="76.752" cy="76.752" r="76.752" transform="translate(12703.496 6724.95)" fill="#ffb52f" opacity="0.4"/>
    <rect id="長方形_182" data-name="長方形 182" width="428" height="116" transform="translate(12354 6907.902)" fill="#3f3d56"/>
    <path id="パス_1333" data-name="パス 1333" d="M756.839,276.477l-17.09,8.088,15.125-11.31a85.361,85.361,0,0,0-8.258-10.867L672.5,280.81l66.948-25.538a85.333,85.333,0,0,0-9.722-7.41L616.789,266.052a84.639,84.639,0,0,0-18.537,52.82h170a84.592,84.592,0,0,0-11.413-42.4Z" transform="translate(11997.748 6344.03)" fill="#f2f2f2"/>
    <path id="パス_1334" data-name="パス 1334" d="M770.375,152.166a495.973,495.973,0,0,0-218.123-50.2c-153.83,0-291.362,69.753-382.71,179.349C325.968,247.045,598.319,187.714,770.375,152.166Z" transform="translate(11997.748 6344.03)" fill="#f2f2f2"/>
    <rect id="長方形_183" data-name="長方形 183" width="1020" height="2" transform="translate(12084 7139.902)" fill="#2f2e41"/>
    <path id="パス_1335" data-name="パス 1335" d="M682.117,318.873l-57.864-85.951s87.631,30.593,77.686,85.951Z" transform="translate(11997.748 6344.03)" fill="#3f3d56"/>
    <path id="パス_1336" data-name="パス 1336" d="M684.388,318.873l57.864-85.951s-87.631,30.593-77.686,85.951Z" transform="translate(11997.748 6344.03)" fill="#ffb52f"/>
    <path id="パス_1337" data-name="パス 1337" d="M784.752,797.873h-429v-640h429Zm-427-2h425v-636h-425Z" transform="translate(11997.748 6344.03)" fill="#2f2e41"/>
    <rect id="長方形_184" data-name="長方形 184" width="427" height="2" transform="translate(12355 6517.083)" fill="#2f2e41"/>
    <circle id="楕円形_110" data-name="楕円形 110" cx="4" cy="4" r="4" transform="translate(12362 6505.902)" fill="#ffb52f"/>
    <circle id="楕円形_111" data-name="楕円形 111" cx="4" cy="4" r="4" transform="translate(12373 6505.902)" fill="#ffb52f"/>
    <circle id="楕円形_112" data-name="楕円形 112" cx="4" cy="4" r="4" transform="translate(12384 6505.902)" fill="#ffb52f"/>
    <rect id="長方形_185" data-name="長方形 185" width="18" height="10" transform="translate(12370 6530.902)" fill="#ffb52f"/>
    <rect id="長方形_186" data-name="長方形 186" width="88" height="10" transform="translate(12370 6609.902)" fill="#ffb52f"/>
    <rect id="長方形_187" data-name="長方形 187" width="88" height="10" transform="translate(12771 6540.902) rotate(180)" fill="#f2f2f2"/>
    <rect id="長方形_188" data-name="長方形 188" width="148" height="6" transform="translate(12370 6626.902)" fill="#f2f2f2"/>
    <rect id="長方形_189" data-name="長方形 189" width="140" height="6" transform="translate(12370 6639.902)" fill="#f2f2f2"/>
    <rect id="長方形_190" data-name="長方形 190" width="102" height="6" transform="translate(12370 6652.902)" fill="#f2f2f2"/>
    <rect id="長方形_191" data-name="長方形 191" width="58" height="6" transform="translate(12404 6830.902)" fill="#f2f2f2"/>
    <rect id="長方形_192" data-name="長方形 192" width="54.865" height="6" transform="translate(12404 6843.902)" fill="#f2f2f2"/>
    <rect id="長方形_193" data-name="長方形 193" width="39.973" height="6" transform="translate(12404 6856.902)" fill="#f2f2f2"/>
    <rect id="長方形_194" data-name="長方形 194" width="58" height="6" transform="translate(12539 6830.902)" fill="#f2f2f2"/>
    <rect id="長方形_195" data-name="長方形 195" width="54.865" height="6" transform="translate(12539 6843.902)" fill="#f2f2f2"/>
    <rect id="長方形_196" data-name="長方形 196" width="39.973" height="6" transform="translate(12539 6856.902)" fill="#f2f2f2"/>
    <rect id="長方形_197" data-name="長方形 197" width="58" height="6" transform="translate(12679 6830.902)" fill="#f2f2f2"/>
    <rect id="長方形_198" data-name="長方形 198" width="54.865" height="6" transform="translate(12679 6843.902)" fill="#f2f2f2"/>
    <rect id="長方形_199" data-name="長方形 199" width="39.973" height="6" transform="translate(12679 6856.902)" fill="#f2f2f2"/>
    <rect id="長方形_200" data-name="長方形 200" width="88" height="10" transform="translate(12494 7057.902)" fill="#ffb52f"/>
    <rect id="長方形_201" data-name="長方形 201" width="148" height="6" transform="translate(12494 7074.902)" fill="#f2f2f2"/>
    <rect id="長方形_202" data-name="長方形 202" width="140" height="6" transform="translate(12494 7087.902)" fill="#f2f2f2"/>
    <rect id="長方形_203" data-name="長方形 203" width="102" height="6" transform="translate(12494 7100.902)" fill="#f2f2f2"/>
    <rect id="長方形_204" data-name="長方形 204" width="348" height="2" transform="translate(12396.5 6717.902)" fill="#4288fb" opacity="0.3"/>
    <rect id="長方形_205" data-name="長方形 205" width="74" height="66" transform="translate(12396 6752.902)" fill="#4288fb" opacity="0.3"/>
    <rect id="長方形_206" data-name="長方形 206" width="74" height="66" transform="translate(12531 6752.902)" fill="#3f3d56"/>
    <rect id="長方形_207" data-name="長方形 207" width="74" height="66" transform="translate(12671 6752.902)" fill="#3f3d56"/>
    <path id="パス_1338" data-name="パス 1338" d="M560.611,474.6l-.976-.019c.021-1.081.631-26.561,10.662-33.6l.561.8C561.231,448.53,560.615,474.335,560.611,474.6Z" transform="translate(11997.748 6344.03)" fill="#4288fb"/>
    <circle id="楕円形_113" data-name="楕円形 113" cx="4.881" cy="4.881" r="4.881" transform="translate(12568.325 6774.917)" fill="#4288fb"/>
    <path id="パス_1339" data-name="パス 1339" d="M574.471,453a15.2,15.2,0,0,1-7.841.339,13.85,13.85,0,0,1,14.24-4.884,15.2,15.2,0,0,1-6.4,4.546Z" transform="translate(11997.748 6344.03)" fill="#4288fb"/>
    <path id="パス_1340" data-name="パス 1340" d="M700.611,474.6l-.976-.019c.021-1.081.631-26.561,10.662-33.6l.561.8C701.231,448.53,700.615,474.335,700.611,474.6Z" transform="translate(11997.748 6344.03)" fill="#4288fb"/>
    <circle id="楕円形_114" data-name="楕円形 114" cx="4.881" cy="4.881" r="4.881" transform="translate(12708.325 6774.917)" fill="#4288fb"/>
    <path id="パス_1341" data-name="パス 1341" d="M714.471,453a15.2,15.2,0,0,1-7.841.339,13.85,13.85,0,0,1,14.24-4.884A15.2,15.2,0,0,1,714.471,453Z" transform="translate(11997.748 6344.03)" fill="#4288fb"/>
    <rect id="長方形_208" data-name="長方形 208" width="88" height="10" transform="translate(12370 6944.902)" fill="#ffb52f"/>
    <rect id="長方形_209" data-name="長方形 209" width="148" height="6" transform="translate(12370 6961.902)" fill="#f2f2f2"/>
    <rect id="長方形_210" data-name="長方形 210" width="140" height="6" transform="translate(12370 6974.902)" fill="#f2f2f2"/>
    <rect id="長方形_211" data-name="長方形 211" width="102" height="6" transform="translate(12370 6987.902)" fill="#f2f2f2"/>
    <circle id="楕円形_115" data-name="楕円形 115" cx="31.248" cy="31.248" r="31.248" transform="translate(12664.504 6927.454)" fill="#4288fb" opacity="0.4"/>
    <circle id="楕円形_116" data-name="楕円形 116" cx="21.92" cy="21.92" r="21.92" transform="translate(12616 6951.707)" fill="#4288fb" opacity="0.4"/>
    <circle id="楕円形_117" data-name="楕円形 117" cx="79" cy="79" r="79" transform="translate(12172.5 6949.402)" fill="#2f2e41"/>
    <rect id="長方形_212" data-name="長方形 212" width="24" height="43" transform="translate(12215.5 7090.402)" fill="#2f2e41"/>
    <rect id="長方形_213" data-name="長方形 213" width="24" height="43" transform="translate(12263.5 7090.402)" fill="#2f2e41"/>
    <ellipse id="楕円形_118" data-name="楕円形 118" cx="20" cy="7.5" rx="20" ry="7.5" transform="translate(12215.5 7126.402)" fill="#2f2e41"/>
    <ellipse id="楕円形_119" data-name="楕円形 119" cx="20" cy="7.5" rx="20" ry="7.5" transform="translate(12263.5 7125.402)" fill="#2f2e41"/>
    <circle id="楕円形_120" data-name="楕円形 120" cx="27" cy="27" r="27" transform="translate(12226.5 6981.402)" fill="#fff"/>
    <circle id="楕円形_121" data-name="楕円形 121" cx="9" cy="9" r="9" transform="translate(12244.5 6987.402)" fill="#3f3d56"/>
    <path id="パス_1342" data-name="パス 1342" d="M177.119,610.9c-6.379-28.568,14.012-57.434,45.544-64.475s62.265,10.41,68.644,38.978-14.519,39.1-46.051,46.145S183.5,639.472,177.119,610.9Z" transform="translate(11997.748 6344.03)" fill="#ad42fb"/>
    <ellipse id="楕円形_122" data-name="楕円形 122" cx="39.5" cy="12.4" rx="39.5" ry="12.4" transform="translate(12283.383 6971.583) rotate(-65.077)" fill="#2f2e41"/>
    <ellipse id="楕円形_123" data-name="楕円形 123" cx="12.4" cy="39.5" rx="12.4" ry="39.5" transform="translate(12136.84 6935.876) rotate(-27.893)" fill="#2f2e41"/>
    <ellipse id="楕円形_124" data-name="楕円形 124" cx="12.4" cy="39.5" rx="12.4" ry="39.5" transform="translate(12878.225 6937.259) rotate(-21.078)" fill="#2f2e41"/>
    <circle id="楕円形_125" data-name="楕円形 125" cx="79" cy="79" r="79" transform="translate(12898.189 6950.104)" fill="#2f2e41"/>
    <rect id="長方形_214" data-name="長方形 214" width="24" height="43" transform="translate(13013.48 7133.999) rotate(179.84)" fill="#2f2e41"/>
    <rect id="長方形_215" data-name="長方形 215" width="24" height="43" transform="translate(12965.48 7134.134) rotate(179.84)" fill="#2f2e41"/>
    <ellipse id="楕円形_126" data-name="楕円形 126" cx="20" cy="7.5" rx="20" ry="7.5" transform="translate(12973.467 7127.119) rotate(-0.16)" fill="#2f2e41"/>
    <ellipse id="楕円形_127" data-name="楕円形 127" cx="20" cy="7.5" rx="20" ry="7.5" transform="translate(12925.465 7126.253) rotate(-0.16)" fill="#2f2e41"/>
    <circle id="楕円形_128" data-name="楕円形 128" cx="27" cy="27" r="27" transform="translate(12948.134 6982.11)" fill="#fff"/>
    <circle id="楕円形_129" data-name="楕円形 129" cx="9" cy="9" r="9" transform="translate(12966.134 7000.11)" fill="#3f3d56"/>
    <path id="パス_1343" data-name="パス 1343" d="M1055.868,611.392c6.3-28.585-14.173-57.394-45.724-64.347s-62.236,10.584-68.535,39.17,14.628,39.063,46.18,46.016S1049.569,639.978,1055.868,611.392Z" transform="translate(11997.748 6344.03)" fill="#4288fb"/>
    <ellipse id="楕円形_130" data-name="楕円形 130" cx="39.5" cy="12.4" rx="39.5" ry="12.4" transform="translate(13025.077 6998.032) rotate(-25.535)" fill="#2f2e41"/>
    <path id="パス_1344" data-name="パス 1344" d="M1018.326,713.466c.022,7.732-19.844,23.056-41.935,23.118S933.525,714.935,933.5,707.2s20.717,1.442,42.809,1.38S1018.3,705.734,1018.326,713.466Z" transform="translate(11997.748 6344.03)" fill="#fff"/>
    <circle id="楕円形_131" data-name="楕円形 131" cx="110.248" cy="110.248" r="110.248" transform="translate(12891 6804.454)" fill="#4288fb" opacity="0.4"/>
    <circle id="楕円形_132" data-name="楕円形 132" cx="79" cy="79" r="79" transform="translate(12195.405 6715.591)" fill="#2f2e41"/>
    <rect id="長方形_216" data-name="長方形 216" width="24" height="43" transform="translate(12227.938 6849.188) rotate(10.261)" fill="#2f2e41"/>
    <rect id="長方形_217" data-name="長方形 217" width="24" height="43" transform="translate(12275.172 6857.738) rotate(10.261)" fill="#2f2e41"/>
    <ellipse id="楕円形_133" data-name="楕円形 133" cx="7.5" cy="20" rx="7.5" ry="20" transform="matrix(0.646, -0.763, 0.763, 0.646, 12263.327, 6900.302)" fill="#2f2e41"/>
    <ellipse id="楕円形_134" data-name="楕円形 134" cx="7.5" cy="20" rx="7.5" ry="20" transform="matrix(0.646, -0.763, 0.763, 0.646, 12217.079, 6891.93)" fill="#2f2e41"/>
    <circle id="楕円形_135" data-name="楕円形 135" cx="27" cy="27" r="27" transform="translate(12252.936 6748.267)" fill="#fff"/>
    <circle id="楕円形_136" data-name="楕円形 136" cx="9" cy="9" r="9" transform="translate(12282.032 6756.589)" fill="#3f3d56"/>
    <path id="パス_1345" data-name="パス 1345" d="M214.337,364.617c-1.188-29.247,24.019-54.019,56.3-55.331s59.415,21.335,60.6,50.582-21.252,35.892-53.534,37.2S215.525,393.864,214.337,364.617Z" transform="translate(11997.748 6344.03)" fill="#fff72f"/>
    <ellipse id="楕円形_137" data-name="楕円形 137" cx="39.5" cy="12.4" rx="39.5" ry="12.4" transform="matrix(0.975, -0.223, 0.223, 0.975, 12306.077, 6776.937)" fill="#2f2e41"/>
    <ellipse id="楕円形_138" data-name="楕円形 138" cx="39.5" cy="12.4" rx="39.5" ry="12.4" transform="matrix(0.975, -0.223, 0.223, 0.975, 12151.003, 6802.725)" fill="#2f2e41"/>
    <path id="パス_1346" data-name="パス 1346" d="M254.96,481.694a18,18,0,1,0,35.424,6.413c1.771-9.782-5.792-13.244-15.575-15.014S256.73,471.912,254.96,481.694Z" transform="translate(11997.748 6344.03)" fill="#fff"/>
    <rect id="長方形_218" data-name="長方形 218" width="74" height="66" transform="translate(12389.537 6709.167) rotate(16.689)" fill="#3f3d56"/>
    <path id="パス_1347" data-name="パス 1347" d="M399.12,435.948l-.93-.3c.331-1.03,8.232-25.261,19.863-29.127l.308.926C407.2,411.159,399.2,435.7,399.12,435.948Z" transform="translate(11997.748 6344.03)" fill="#4288fb"/>
    <circle id="楕円形_139" data-name="楕円形 139" cx="4.881" cy="4.881" r="4.881" transform="translate(12417.358 6742.169)" fill="#4288fb"/>
    <path id="パス_1348" data-name="パス 1348" d="M418.6,419.247a15.2,15.2,0,0,1-7.608-1.928,13.85,13.85,0,0,1,15.043-.589,15.2,15.2,0,0,1-7.434,2.517Z" transform="translate(11997.748 6344.03)" fill="#4288fb"/>
  </g>
</svg>
