<svg id="レイヤー_1" data-name="レイヤー 1" xmlns="http://www.w3.org/2000/svg" viewBox="0 0 1074.06 364.81"><defs><style>.cls-1,.cls-19,.cls-2,.cls-3,.cls-4,.cls-5,.cls-6,.cls-7,.cls-8{font-size:166px;font-family:HiraKakuPro-W6-83pv-RKSJ-H, Hiragino Kaku Gothic Pro;}.cls-1{fill:#68b82e;}.cls-2{fill:#c8da33;}.cls-3{fill:#f5cc1e;}.cls-4{fill:#f18c1a;}.cls-5{fill:#e72219;}.cls-6{fill:#ad4e99;}.cls-7{fill:#40479b;}.cls-8{fill:#2b579f;}.cls-10,.cls-11,.cls-12,.cls-13,.cls-14,.cls-15,.cls-16,.cls-17,.cls-9{fill:none;stroke-miterlimit:10;stroke-width:20px;}.cls-9{stroke:#68b82e;}.cls-10{stroke:#c8da33;}.cls-11{stroke:#f5cc1e;}.cls-12{stroke:#f18c1a;}.cls-13{stroke:#e72219;}.cls-14{stroke:#ad4e99;}.cls-15{stroke:#40479b;}.cls-16{stroke:#2b579f;}.cls-17{stroke:#3e3a39;}.cls-18,.cls-19{fill:#3e3a39;}</style></defs><title>kinmokulogo3</title><text class="cls-1" transform="translate(409.06 252.94)">近もく会</text><text class="cls-2" transform="translate(410.06 255.94)">近もく会</text><text class="cls-3" transform="translate(408.06 258.94)">近もく会</text><text class="cls-4" transform="translate(405.06 259.94)">近もく会</text><text class="cls-5" transform="translate(401.06 259.94)">近もく会</text><text class="cls-6" transform="translate(400.06 256.94)">近もく会</text><text class="cls-7" transform="translate(402.06 253.94)">近もく会</text><text class="cls-8" transform="translate(405.06 252.94)">近もく会</text><circle class="cls-9" cx="185.18" cy="177.65" r="167.65"/><circle class="cls-10" cx="187.15" cy="181.45" r="167.65"/><circle class="cls-11" cx="186.74" cy="186.65" r="167.65"/><circle class="cls-12" cx="183.18" cy="187.16" r="167.65"/><circle class="cls-13" cx="179.65" cy="186.49" r="167.65"/><circle class="cls-14" cx="177.65" cy="184.35" r="167.65"/><circle class="cls-15" cx="178.61" cy="178.65" r="167.65"/><circle class="cls-16" cx="181.15" cy="180.35" r="167.65"/><circle class="cls-17" cx="181.15" cy="182.98" r="167.65"/><ellipse class="cls-18" cx="128.28" cy="120.72" rx="16.09" ry="11.7" transform="translate(-40.54 170.78) rotate(-60.09)"/><path class="cls-18" d="M220.12,113.65c5.88,2.67,7.19,12.46,2.92,21.88s-10.1,16-16,13.3-9.59-13.55-5.33-23S214.23,111,220.12,113.65Z" transform="translate(-0.21 -0.93)"/><path class="cls-18" d="M147.92,293.59c-1.66,0-3.31,0-5-.16-24.82-1.55-56.66-15.75-67.46-74.62a10,10,0,0,1,19.68-3.6c4.3,23.45,12.5,40,24.38,49.31,9.82,7.68,22.56,10.5,37.84,8.38,22.12-3.06,49.76-16.95,73.93-37.16,22.42-18.74,32.22-34.77,33-40.15a10,10,0,0,1,11.82-16.05c11.09,6.8,8,19.69,6.84,23.48-5.19,16.42-25.66,39.34-52.15,58.39C213.77,273.68,181,293.59,147.92,293.59Z" transform="translate(-0.21 -0.93)"/><text class="cls-19" transform="translate(405.06 255.94)">近もく会</text></svg>