<?xml version="1.0" encoding="utf-8"?>
<!-- Generator: Adobe Illustrator 23.0.1, SVG Export Plug-In . SVG Version: 6.00 Build 0)  -->
<svg version="1.1" id="レイヤー_1" xmlns="http://www.w3.org/2000/svg" xmlns:xlink="http://www.w3.org/1999/xlink" x="0px"
	 y="0px" viewBox="0 0 595.28 595.28" style="enable-background:new 0 0 595.28 595.28;" xml:space="preserve">
<style type="text/css">
	.st0{fill:#68B82E;}
	.st1{fill:#C8DA33;}
	.st2{fill:#F5CC1E;}
	.st3{fill:#F18C1A;}
	.st4{fill:#E72219;}
	.st5{fill:#AD4E99;}
	.st6{fill:#40479B;}
	.st7{fill:none;stroke:#68B82E;stroke-width:30;stroke-miterlimit:10;}
	.st8{fill:none;stroke:#C8DA33;stroke-width:30;stroke-miterlimit:10;}
	.st9{fill:none;stroke:#F5CC1E;stroke-width:30;stroke-miterlimit:10;}
	.st10{fill:none;stroke:#F18C1A;stroke-width:30;stroke-miterlimit:10;}
	.st11{fill:none;stroke:#E72219;stroke-width:30;stroke-miterlimit:10;}
	.st12{fill:none;stroke:#AD4E99;stroke-width:30;stroke-miterlimit:10;}
	.st13{fill:none;stroke:#40479B;stroke-width:30;stroke-miterlimit:10;}
	.st14{fill:none;stroke:#2B579F;stroke-width:30;stroke-miterlimit:10;}
	.st15{fill:none;stroke:#3E3A39;stroke-width:30;stroke-miterlimit:10;}
	.st16{fill:#3E3A39;stroke:#3E3A39;stroke-miterlimit:10;}
	.st17{fill:#3E3A39;}
</style>
<circle class="st0" cx="225.52" cy="231.72" r="42.52"/>
<circle class="st1" cx="225.52" cy="232.89" r="42.52"/>
<circle class="st2" cx="224.52" cy="235.68" r="42.52"/>
<circle class="st3" cx="221.52" cy="234.68" r="42.52"/>
<circle class="st4" cx="221.52" cy="233.68" r="42.52"/>
<circle class="st5" cx="221.52" cy="231.68" r="42.52"/>
<circle class="st6" cx="223.52" cy="231.78" r="42.52"/>
<circle class="st7" cx="299.8" cy="292.5" r="167.65"/>
<circle class="st8" cx="301.77" cy="296.3" r="167.65"/>
<circle class="st9" cx="301.36" cy="301.5" r="167.65"/>
<circle class="st10" cx="297.8" cy="302.01" r="167.65"/>
<circle class="st11" cx="294.27" cy="301.34" r="167.65"/>
<circle class="st12" cx="292.27" cy="299.2" r="167.65"/>
<circle class="st13" cx="293.23" cy="293.5" r="167.65"/>
<circle class="st14" cx="295.77" cy="295.2" r="167.65"/>
<circle class="st15" cx="295.77" cy="297.83" r="167.65"/>
<g>
	<path class="st16" d="M463.41,297.83c0,0-75.06,19.13-167.65,19.13s-167.65-19.13-167.65-19.13c0,10.05,0.89,19.9,2.58,29.47
		v-17.24h41.13v100.67c9.23,10.12,19.68,19.11,31.13,26.73V316.17h41.13v141.17c10,3.24,20.4,5.56,31.13,6.88V324.35h41.13v139.86
		c10.72-1.31,21.13-3.64,31.13-6.88V315.25h41.13v122.2c11.44-7.62,21.9-16.61,31.13-26.73V306.95h41.13v20.35
		C462.53,317.73,463.41,307.88,463.41,297.83z"/>
	<path class="st15" d="M461.47,298.23c0,94.46-72.55,167.31-165.14,167.31S129.95,392.66,129.95,298.2c0,0,73.8,15.82,166.38,15.82
		S461.47,298.23,461.47,298.23z"/>
</g>
<circle class="st17" cx="223.52" cy="233.68" r="42.52"/>
<circle class="st17" cx="368.02" cy="233.68" r="42.52"/>
<circle class="st0" cx="370.02" cy="233.72" r="42.52"/>
<circle class="st1" cx="370.02" cy="234.89" r="42.52"/>
<circle class="st2" cx="369.02" cy="237.68" r="42.52"/>
<circle class="st3" cx="366.02" cy="236.68" r="42.52"/>
<circle class="st4" cx="366.02" cy="235.68" r="42.52"/>
<circle class="st5" cx="366.02" cy="233.68" r="42.52"/>
<circle class="st6" cx="368.02" cy="233.78" r="42.52"/>
<circle class="st17" cx="368.02" cy="235.68" r="42.52"/>
<g>
	<circle class="st0" cx="298.37" cy="279.64" r="12.18"/>
	<circle class="st1" cx="298.37" cy="279.97" r="12.18"/>
	<circle class="st2" cx="298.08" cy="280.77" r="12.18"/>
	<circle class="st3" cx="297.22" cy="280.49" r="12.18"/>
	<circle class="st4" cx="297.22" cy="280.2" r="12.18"/>
	<circle class="st5" cx="297.22" cy="279.63" r="12.18"/>
	<circle class="st6" cx="297.8" cy="279.66" r="12.18"/>
	<circle class="st17" cx="297.8" cy="280.2" r="12.18"/>
</g>
</svg>
