<svg id="レイヤー_1" data-name="レイヤー 1" xmlns="http://www.w3.org/2000/svg" viewBox="0 0 364.8 364.81"><defs><style>.cls-1,.cls-2,.cls-3,.cls-4,.cls-5,.cls-6,.cls-7,.cls-8,.cls-9{fill:none;stroke-miterlimit:10;stroke-width:20px;}.cls-1{stroke:#68b82e;}.cls-2{stroke:#c8da33;}.cls-3{stroke:#f5cc1e;}.cls-4{stroke:#f18c1a;}.cls-5{stroke:#e72219;}.cls-6{stroke:#ad4e99;}.cls-7{stroke:#40479b;}.cls-8{stroke:#2b579f;}.cls-9{stroke:#3e3a39;}.cls-10{fill:#3e3a39;}</style></defs><title>kinmoku-logo</title><circle class="cls-1" cx="185.18" cy="177.65" r="167.65"/><circle class="cls-2" cx="187.15" cy="181.45" r="167.65"/><circle class="cls-3" cx="186.74" cy="186.65" r="167.65"/><circle class="cls-4" cx="183.18" cy="187.16" r="167.65"/><circle class="cls-5" cx="179.65" cy="186.49" r="167.65"/><circle class="cls-6" cx="177.65" cy="184.35" r="167.65"/><circle class="cls-7" cx="178.61" cy="178.65" r="167.65"/><circle class="cls-8" cx="181.15" cy="180.35" r="167.65"/><circle class="cls-9" cx="181.15" cy="182.98" r="167.65"/><ellipse class="cls-10" cx="230.28" cy="223.72" rx="16.09" ry="11.7" transform="translate(-180.68 207.83) rotate(-60.09)"/><path class="cls-10" d="M322.12,216.65c5.88,2.67,7.19,12.46,2.92,21.88s-10.1,16-16,13.3-9.59-13.55-5.33-23S316.23,214,322.12,216.65Z" transform="translate(-102.21 -103.93)"/><path class="cls-10" d="M249.92,396.59c-1.66,0-3.31,0-5-.16-24.82-1.55-56.66-15.75-67.46-74.62a10,10,0,1,1,19.68-3.6c4.3,23.45,12.5,40,24.38,49.31,9.82,7.68,22.56,10.5,37.84,8.38,22.12-3.06,49.76-16.95,73.93-37.16,22.42-18.74,32.22-34.77,33-40.15a10,10,0,0,1,11.82-16c11.09,6.8,8,19.69,6.84,23.48-5.19,16.42-25.66,39.34-52.15,58.39C315.77,376.68,283,396.59,249.92,396.59Z" transform="translate(-102.21 -103.93)"/></svg>